<svg width="100" height="100" viewBox="0 0 100 100" fill="none" xmlns="http://www.w3.org/2000/svg">
  <path d="M50,50 C46,40 40,28 38,16" stroke="#FF6F20" stroke-width="9.5" stroke-linecap="round" fill="none"/>
  <path d="M50,50 C54,42 62,33 66,22" stroke="#FF6F20" stroke-width="8.2" stroke-linecap="round" fill="none" opacity="0.90"/>
  <path d="M50,50 C58,47 70,42 78,32" stroke="#FF6F20" stroke-width="7.0" stroke-linecap="round" fill="none" opacity="0.80"/>
  <path d="M50,50 C60,52 72,56 78,66" stroke="#FF6F20" stroke-width="5.9" stroke-linecap="round" fill="none" opacity="0.68"/>
  <path d="M50,50 C54,58 54,70 46,78" stroke="#FF6F20" stroke-width="5.0" stroke-linecap="round" fill="none" opacity="0.56"/>
  <path d="M50,50 C44,58 34,62 24,70" stroke="#FF6F20" stroke-width="4.2" stroke-linecap="round" fill="none" opacity="0.44"/>
  <path d="M50,50 C42,50 28,48 18,38" stroke="#FF6F20" stroke-width="3.5" stroke-linecap="round" fill="none" opacity="0.30"/>
  <path d="M50,50 C44,42 36,30 36,20" stroke="#FF6F20" stroke-width="2.8" stroke-linecap="round" fill="none" opacity="0.18"/>
  <circle cx="50" cy="50" r="4.8" fill="#FF6F20"/>
</svg>